HIERARCHY
ROOT Hips
{
  OFFSET 196.326 95.9168 97.7182
  CHANNELS 6 Xposition Yposition Zposition Zrotation Xrotation Yrotation
  JOINT LeftUpLeg
  {
    OFFSET 8.64259 1.95398 -2.38835
    CHANNELS 3 Zrotation Xrotation Yrotation
    JOINT LeftLeg
    {
      OFFSET 43.7702 0 0
      CHANNELS 3 Zrotation Xrotation Yrotation
      JOINT LeftFoot
      {
        OFFSET 40.6238 0 0
        CHANNELS 3 Zrotation Xrotation Yrotation
        JOINT LeftToeBase
        {
          OFFSET 12.7242 0 0
          CHANNELS 3 Zrotation Xrotation Yrotation
          End Site
          {
            OFFSET 0 0 0
          }
        }
      }
    }
  }
  JOINT RightUpLeg
  {
    OFFSET -8.2249 1.95398 -2.59336
    CHANNELS 3 Zrotation Xrotation Yrotation
    JOINT RightLeg
    {
      OFFSET 43.5653 0 0
      CHANNELS 3 Zrotation Xrotation Yrotation
      JOINT RightFoot
      {
        OFFSET 40.6238 0 0
        CHANNELS 3 Zrotation Xrotation Yrotation
        JOINT RightToeBase
        {
          OFFSET 12.7242 0 0
          CHANNELS 3 Zrotation Xrotation Yrotation
          End Site
          {
            OFFSET 0 0 0
          }
        }
      }
    }
  }
  JOINT Spine
  {
    OFFSET 0.165834 0.87714 6.61349
    CHANNELS 3 Zrotation Xrotation Yrotation
    JOINT Spine1
    {
      OFFSET 7.38963 1.71661e-005 0
      CHANNELS 3 Zrotation Xrotation Yrotation
      JOINT Spine2
      {
        OFFSET 11.9445 1.14441e-005 0
        CHANNELS 3 Zrotation Xrotation Yrotation
        JOINT Spine3
        {
          OFFSET 14.7254 4.19617e-005 0
          CHANNELS 3 Zrotation Xrotation Yrotation
          JOINT Spine4
          {
            OFFSET 10.9679 0 0
            CHANNELS 3 Zrotation Xrotation Yrotation
            JOINT RightShoulder
            {
              OFFSET 2.46616 -1.6653 3.69651
              CHANNELS 3 Zrotation Xrotation Yrotation
              JOINT RightArm
              {
                OFFSET 13.0012 0 0
                CHANNELS 3 Zrotation Xrotation Yrotation
                JOINT RightForeArm
                {
                  OFFSET 28.7848 1.52588e-005 0
                  CHANNELS 3 Zrotation Xrotation Yrotation
                  JOINT RightHand
                  {
                    OFFSET 26.5688 1.52588e-005 0
                    CHANNELS 3 Zrotation Xrotation Yrotation
                    End Site
                    {
                      OFFSET 0 0 0
                    }
                  }
                }
              }
            }
            JOINT LeftShoulder
            {
              OFFSET 2.38034 -1.29275 -3.75231
              CHANNELS 3 Zrotation Xrotation Yrotation
              JOINT LeftArm
              {
                OFFSET 16.3182 6.10351e-005 0
                CHANNELS 3 Zrotation Xrotation Yrotation
                JOINT LeftForeArm
                {
                  OFFSET 27.0901 0 0
                  CHANNELS 3 Zrotation Xrotation Yrotation
                  JOINT LeftHand
                  {
                    OFFSET 24.5451 1.52588e-005 0
                    CHANNELS 3 Zrotation Xrotation Yrotation
                    End Site
                    {
                      OFFSET 0 0 0
                    }
                  }
                }
              }
            }
            JOINT Neck
            {
              OFFSET 5.0226 -0.0266342 0
              CHANNELS 3 Zrotation Xrotation Yrotation
              JOINT Head
              {
                OFFSET 6.69363 2.86102e-005 0
                CHANNELS 3 Zrotation Xrotation Yrotation
                End Site
                {
                  OFFSET 0 0 0
                }
              }
            }
          }
        }
      }
    }
  }
}
MOTION
Frames:	10
Frame Time:	0.0416667
37.6991 95.7457 25.0312 -174.512 -88.9973 -174.093 -174.977 14.2833 89.2846 -20.0268 21.1521 0.108201 59.2693 6.31525 16.4037 38.2315 8.56053 -36.0292 178.065 13.457 86.4485 -42.554 8.38292 -4.00577 56.4494 -1.32808 -0.672993 43.0066 2.00015 17.8188 0.35347 7.3228 -89.8687 12.2278 0.764783 0.176541 0.557121 0.771805 0.142697 -21.9794 0.676359 0.398224 -1.96677 0.676363 0.398229 80.1438 -51.475 -115.103 22.5091 -5.81867 9.03183 -23.1682 -13.2601 -61.3535 -9.51167 -0.840865 4.60252 -98.4058 -41.1577 62.9816 -31.0573 1.27129 9.9442 9.40595 5.14141 -46.6783 14.1162 1.29753 5.18821 4.13183 -0.223951 1.3348 0.316688 -0.44488 0.166218 
38.8221 96.0789 26.4961 -105.455 -89.0424 -104.121 -174.969 13.5574 89.4597 -19.4038 19.8047 0.392729 60.641 7.33465 15.5131 34.8081 6.58928 -35.0181 177.099 16.0825 86.2889 -42.6102 12.7154 -2.80391 55.7545 -1.45988 -0.741019 40.8362 1.22339 11.3132 0.261285 7.3077 -89.9348 12.2585 0.550234 0.0683617 0.587654 0.55271 0.0440704 -21.9483 0.504246 0.230576 -1.93565 0.504253 0.230578 80.458 -51.4758 -114.644 22.7482 -5.11202 8.8566 -20.4757 -12.9911 -58.313 -8.09008 -0.733182 4.41956 -98.3281 -40.966 63.0264 -29.2301 -0.21293 9.07963 9.63691 3.50331 -51.4165 15.4232 1.30517 4.50681 3.84396 -6.26244 2.62579 -0.0384104 -6.68937 -1.00513 
39.481 96.4999 27.77 -83.6558 -87.5892 -81.2912 -174.471 12.4484 90.1208 -17.8724 18.6668 0.391163 60.845 7.60153 15.3608 34.9624 6.68192 -34.941 175.682 15.6645 86.0921 -34.328 16.7852 -0.722066 58.2437 -1.99249 -1.09512 40.3403 1.1035 10.1079 0.208274 7.30137 -90.0192 12.2713 0.404837 -0.0837518 0.600446 0.400757 -0.10149 -21.9352 0.411284 0.0417962 -1.92257 0.411287 0.0417967 81.3404 -51.2267 -113.446 22.9365 -5.49231 8.22007 -20.2172 -14.0934 -56.2471 -8.59207 -0.764164 4.36513 -98.3375 -40.7754 62.9325 -28.8744 -0.670554 8.90031 9.21289 2.6447 -53.1247 17.9872 1.63023 5.19995 3.73147 -10.848 4.23486 -0.788112 -11.5911 -3.2682 
39.4108 96.6628 28.9309 -77.4891 -85.5492 -74.7703 -173.621 11.952 90.7339 -17.0711 17.4846 -0.0387021 61.5065 7.95336 15.3168 34.9416 6.66921 -34.7927 175.642 14.3844 85.8969 -23.9823 19.1408 0.402117 55.0272 -1.3302 -0.635427 40.2013 1.1845 12.7244 0.186279 7.27417 -90.0022 12.3256 0.369226 -0.0460286 0.654729 0.366842 -0.0622436 -21.8809 0.365986 0.0670698 -1.86819 0.365988 0.0670646 82.0032 -50.6587 -112.678 23.6716 -5.86326 7.62324 -19.4273 -14.9333 -54.9217 -8.33331 -0.746115 4.33767 -98.7269 -41.092 62.443 -28.7484 -0.261288 9.8848 9.27387 2.85374 -52.6739 16.99 1.5244 5.07688 4.36545 -14.8656 4.8163 -2.44413 -15.6775 -5.04725 
38.8548 96.7729 30.0733 -75.2526 -84.2149 -72.663 -173.51 11.0575 90.8848 -15.9803 16.8236 0.0524391 61.6382 8.36557 15.8214 35.4087 6.94882 -34.4377 175.141 13.1001 85.8568 -20.938 20.7383 1.27719 54.8716 -1.30527 -0.631644 39.6272 1.17859 15.5708 0.0525372 7.24005 -89.8805 12.3936 0.161183 0.220248 0.722623 0.170717 0.212937 -21.8124 0.0875377 0.258501 -1.79977 0.0875418 0.258507 81.3116 -51.0904 -113.54 23.3367 -7.07362 6.7893 -16.168 -14.9329 -52.1014 -10.7393 -0.898471 4.3824 -98.4261 -41.2311 62.9795 -29.846 -0.0670293 10.8647 10.583 5.03075 -49.5215 14.2352 1.25286 4.81501 4.55876 -19.4271 4.78685 -4.92705 -20.0814 -6.8748 
38.3753 96.9308 31.0697 -73.4168 -83.4108 -70.1399 -173.105 10.7271 91.8269 -15.7672 16.2707 0.144421 62.092 8.5491 15.4235 35.7879 7.18128 -34.2033 175.175 11.2299 86.5619 -17.9907 19.7379 1.72357 54.3562 -1.03958 -0.444239 40.5453 1.30857 14.3213 -0.0089003 7.2216 -89.9228 12.4306 0.0190693 0.152048 0.759662 0.0257437 0.151057 -21.7754 -0.0275075 0.150753 -1.76276 -0.0275125 0.150742 81.2706 -50.9818 -113.64 23.0793 -7.93045 6.27352 -15.1132 -16.3189 -49.5405 -9.84096 -0.845156 4.43441 -98.7379 -41.1672 62.457 -31.9604 1.16722 11.4398 7.75661 4.12163 -42.8737 13.2508 0.972579 3.36805 3.93638 -23.6512 3.73282 -5.89351 -24.0117 -8.31718 
37.8341 96.9565 31.801 -70.8129 -82.4717 -67.6476 -172.765 10.3472 92.1182 -14.8159 16.0549 -0.0505477 61.9687 8.61506 15.6595 37.9297 8.37517 -36.2828 175.721 10.3285 87.0708 -16.042 20.79 1.46714 55.3225 -1.18692 -0.552786 39.5568 1.15341 15.2092 0.0210916 7.1775 -89.9071 12.519 0.0861788 0.175305 0.848057 0.0938061 0.171343 -21.687 0.0295019 0.1931 -1.67439 0.029502 0.193101 81.1836 -51.5832 -113.545 22.1782 -7.7408 6.08047 -14.027 -16.1263 -47.8999 -9.26425 -0.805444 4.43866 -99.0284 -41.2326 62.0233 -33.4718 2.86224 11.851 6.76477 5.41834 -37.9489 12.0598 0.829214 2.88501 4.11146 -24.6873 2.40069 -5.18471 -24.8483 -7.81159 
37.4102 96.9633 32.2578 -68.3219 -82.4351 -65.5838 -172.599 9.94325 92.0412 -13.9415 16.6459 -0.312582 61.5246 8.48746 16.0862 39.456 9.22298 -36.7844 175.872 9.87767 87.0398 -15.2296 21.5182 1.28055 55.95 -1.25298 -0.601451 39.3989 1.13251 15.5575 0.0295355 7.12745 -89.8984 12.6188 0.107224 0.190598 0.947885 0.115512 0.185692 -21.5872 0.0449851 0.214015 -1.57453 0.0449819 0.214006 81.2411 -51.5939 -113.457 22.0826 -7.26887 6.3102 -12.8353 -16.0662 -46.0578 -9.44418 -0.83847 4.75939 -98.8035 -41.3363 62.4234 -34.3352 3.12918 12.127 6.66607 6.55387 -35.2827 11.0674 0.852238 3.62403 5.3163 -19.0409 1.18534 -3.94575 -19.0986 -5.67392 
37.1021 96.9611 32.5344 -65.7932 -83.0964 -63.168 -172.732 9.83165 92.0661 -13.9958 17.0192 -0.180131 61.8898 8.56194 15.6829 38.5834 8.76168 -36.0625 175.76 9.62258 87.0725 -15.4823 22.4308 1.39274 56.866 -1.54341 -0.801552 38.6078 0.998989 16.5595 0.105572 7.08536 -89.9672 12.7032 0.225421 0.0390264 1.03223 0.226923 0.0290534 -21.5031 0.203273 0.104972 -1.49041 0.203271 0.104959 81.5741 -51.4428 -113.025 21.9962 -7.25843 7.20406 -11.6178 -15.0433 -45.0906 -8.95727 -0.803942 4.80451 -98.6205 -41.1465 62.6349 -34.5298 2.74222 12.3181 6.61508 6.372 -34.7472 11.1477 0.856038 3.60285 6.83241 -8.11169 -1.94063 -2.56905 -7.57469 0.324206 
36.8435 96.9337 32.7408 -62.0645 -84.3301 -59.9252 -172.772 9.29007 91.8253 -13.3421 18.4731 -0.336792 61.3567 8.51187 16.2819 39.3686 9.1568 -37.0781 175.41 9.5054 86.694 -16.3971 23.0672 1.49648 57.6562 -1.60704 -0.847703 38.9949 1.06908 16.1711 0.205595 7.08645 -90.0239 12.7012 0.396945 -0.0945946 1.03031 0.392403 -0.111975 -21.5053 0.407028 0.029078 -1.49269 0.407024 0.0290798 82.094 -51.204 -112.348 22.0162 -6.83891 7.9405 -10.7612 -14.6035 -43.9305 -7.91855 -0.806074 6.18118 -98.8812 -41.316 62.2916 -33.553 2.44398 11.7411 6.4462 5.53881 -35.295 11.3531 0.829823 3.26581 7.634 4.12499 -4.55363 -2.76321 5.17423 5.53252 
